# xmcd
#
# Track frame offsets:
#	150
#	18098
#	34051
#	57255
#	73368
#	89584
#	115056
#	136707
#	156316
#	164881
#	185693
#	203430
#	223215
#	242359
#	263665
#	275560
#
# Disc length: 4033 seconds
#
# Revision: 1
# Processed by: cddbd v1.5.2PL0 Copyright (c) Steve Scherf et al.
# Submitted via: audiograbber 1.83.01
#
DISCID=ea0fbf10
DTITLE=Dodo Hug and Efisio Contini - sorriso clandestino
DYEAR=2016
DGENRE=Deutsch
TTITLE0=par la fenêtre
TTITLE1=gueti reis
TTITLE2=sorriso clandestino
TTITLE3=emigrant eyes
TTITLE4=welcome to the 21st century
TTITLE5=clandestini
TTITLE6=ronda final  (cortada)
TTITLE7=lily
TTITLE8=als ich noch jung an jahren
TTITLE9=vitello d'oro
TTITLE10=poverty line
TTITLE11=storia migratoria
TTITLE12=blood in the sand
TTITLE13=barrio chino
TTITLE14=wäbstuehl
TTITLE15=ronda final
EXTD=
EXTT0=
EXTT1=
EXTT2=
EXTT3=
EXTT4=
EXTT5=
EXTT6=
EXTT7=
EXTT8=
EXTT9=
EXTT10=
EXTT11=
EXTT12=
EXTT13=
EXTT14=
EXTT15=
PLAYORDER=
